<?xml version="1.0" encoding="UTF-8"?>
<svg id="Layer_1" data-name="Layer 1" xmlns="http://www.w3.org/2000/svg" viewBox="0 0 1000 1000">
  <defs>
    <style>
      .cls-1 {
        fill: #3b97d3;
      }
    </style>
  </defs>
  <path class="cls-1" d="M877.69,357.88c0-59.92-17.13-111.08-51.4-153.55-34.18-42.39-75.53-63.62-123.87-63.62H354.96v149.61h347.47c15.12,0,27.99,6.6,38.61,19.79,10.62,13.11,15.93,29.12,15.93,47.78s-5.31,34.59-15.93,47.54c-10.62,13.03-23.49,19.47-38.61,19.47H355.44v149.69h346.99c15.12,0,27.99,6.6,38.61,19.71,10.62,13.19,15.93,29.12,15.93,47.86s-5.31,34.59-15.93,47.78c-10.62,13.19-23.49,19.71-38.61,19.71H355.44v149.69h346.99c48.34,0,89.68-21.23,123.87-63.62,34.26-42.47,51.4-93.62,51.4-153.55,0-54.37-14.4-101.83-43.19-142.37,28.8-40.54,43.19-87.83,43.19-141.88Z"/>
  <rect class="cls-1" x="238.63" y="295.13" width="116.33" height="136.74"/>
  <rect class="cls-1" x="238.63" y="568.6" width="116.33" height="136.74"/>
  <rect class="cls-1" x="122.31" y="431.87" width="116.33" height="136.74"/>
</svg>
