<svg xmlns="http://www.w3.org/2000/svg" xmlns:xlink="http://www.w3.org/1999/xlink" width="1080" zoomAndPan="magnify" viewBox="0 0 810 809.999993" height="1080" preserveAspectRatio="xMidYMid meet" version="1.0"><defs><clipPath id="7b2fa08f2d"><path d="M 291 361.039062 L 356 361.039062 L 356 449.539062 L 291 449.539062 Z M 291 361.039062 " clip-rule="nonzero"/></clipPath><clipPath id="d043dd37f0"><path d="M 570 392 L 594.25 392 L 594.25 419 L 570 419 Z M 570 392 " clip-rule="nonzero"/></clipPath></defs><g clip-path="url(#7b2fa08f2d)"><path fill="#65c9d1" d="M 355.253906 387.945312 C 355.253906 380.628906 353.160156 374.386719 348.980469 369.199219 C 344.804688 364.027344 339.757812 361.433594 333.855469 361.433594 L 291.429688 361.433594 L 291.429688 379.695312 L 333.851562 379.695312 C 335.699219 379.695312 337.269531 380.503906 338.570312 382.113281 C 339.867188 383.710938 340.515625 385.667969 340.515625 387.945312 C 340.515625 390.234375 339.867188 392.167969 338.570312 393.75 C 337.269531 395.339844 335.703125 396.128906 333.851562 396.128906 L 291.488281 396.128906 L 291.488281 414.402344 L 333.851562 414.402344 C 335.699219 414.402344 337.269531 415.207031 338.570312 416.808594 C 339.867188 418.417969 340.515625 420.363281 340.515625 422.648438 C 340.515625 424.925781 339.867188 426.871094 338.570312 428.480469 C 337.269531 430.09375 335.703125 430.886719 333.851562 430.886719 L 291.488281 430.886719 L 291.488281 449.164062 L 333.851562 449.164062 C 339.753906 449.164062 344.800781 446.570312 348.976562 441.394531 C 353.15625 436.210938 355.25 429.960938 355.25 422.648438 C 355.25 416.011719 353.488281 410.21875 349.976562 405.265625 C 353.492188 400.316406 355.253906 394.542969 355.253906 387.945312 Z M 355.253906 387.945312 " fill-opacity="1" fill-rule="nonzero"/></g><path fill="#65c9d1" d="M 277.230469 380.285156 L 291.429688 380.285156 L 291.429688 396.980469 L 277.230469 396.980469 Z M 277.230469 380.285156 " fill-opacity="1" fill-rule="nonzero"/><path fill="#65c9d1" d="M 277.230469 413.671875 L 291.429688 413.671875 L 291.429688 430.367188 L 277.230469 430.367188 Z M 277.230469 413.671875 " fill-opacity="1" fill-rule="nonzero"/><path fill="#65c9d1" d="M 263.027344 396.976562 L 277.230469 396.976562 L 277.230469 413.671875 L 263.027344 413.671875 Z M 263.027344 396.976562 " fill-opacity="1" fill-rule="nonzero"/><path fill="#000000" d="M 369.363281 392.132812 L 381.753906 392.132812 C 386.773438 392.132812 390.164062 393.753906 390.164062 398.660156 C 390.164062 401.3125 388.945312 403.007812 386.585938 404.152344 C 389.832031 405.074219 391.417969 407.546875 391.417969 410.828125 C 391.417969 416.179688 386.878906 418.460938 382.125 418.460938 L 369.363281 418.460938 Z M 375.152344 402.789062 L 381.015625 402.789062 C 383.082031 402.789062 384.558594 401.867188 384.558594 399.652344 C 384.558594 397.183594 382.640625 396.632812 380.574219 396.632812 L 375.152344 396.632812 Z M 375.152344 413.964844 L 381.347656 413.964844 C 383.601562 413.964844 385.628906 413.226562 385.628906 410.496094 C 385.628906 407.804688 383.96875 406.734375 381.460938 406.734375 L 375.152344 406.734375 Z M 375.152344 413.964844 " fill-opacity="1" fill-rule="nonzero"/><path fill="#000000" d="M 393.078125 418.460938 L 405.03125 392.167969 L 410.855469 392.167969 L 422.621094 418.460938 L 417.015625 418.460938 L 414.429688 412.636719 L 401.117188 412.636719 L 398.351562 418.460938 Z M 408.015625 397.109375 L 403.589844 407.289062 L 412.332031 407.289062 L 408.054688 397.109375 Z M 408.015625 397.109375 " fill-opacity="1" fill-rule="nonzero"/><path fill="#000000" d="M 429.292969 410.640625 C 429.882812 414.109375 432.980469 414.589844 435.117188 414.589844 C 437.144531 414.589844 440.242188 414 440.242188 411.304688 C 440.242188 405.699219 424.570312 409.316406 424.570312 399.46875 C 424.570312 394.046875 429.65625 391.5 434.417969 391.5 C 439.910156 391.5 444.964844 393.898438 444.964844 399.984375 L 439.359375 399.171875 C 438.660156 396.113281 435.96875 396 434.160156 396 C 432.316406 396 430.175781 396.777344 430.175781 398.988281 C 430.175781 400.941406 431.429688 401.382812 438.03125 402.972656 C 439.984375 403.453125 445.847656 404.667969 445.847656 410.640625 C 445.847656 415.472656 442.085938 419.089844 434.894531 419.089844 C 428.992188 419.089844 423.683594 416.210938 423.683594 409.722656 Z M 429.292969 410.640625 " fill-opacity="1" fill-rule="nonzero"/><path fill="#000000" d="M 454.222656 413.558594 L 469.082031 413.558594 L 469.082031 418.425781 L 448.617188 418.425781 L 448.617188 392.019531 L 467.832031 392.019531 L 467.832031 396.886719 L 454.222656 396.886719 L 454.222656 402.824219 L 466.242188 402.824219 L 466.242188 407.953125 L 454.222656 407.953125 Z M 454.222656 413.558594 " fill-opacity="1" fill-rule="nonzero"/><path fill="#000000" d="M 483.832031 392.132812 L 496.222656 392.132812 C 501.242188 392.132812 504.632812 393.753906 504.632812 398.660156 C 504.632812 401.3125 503.414062 403.007812 501.054688 404.152344 C 504.300781 405.074219 505.886719 407.546875 505.886719 410.828125 C 505.886719 416.179688 501.347656 418.460938 496.59375 418.460938 L 483.832031 418.460938 Z M 489.625 402.789062 L 495.488281 402.789062 C 497.554688 402.789062 499.03125 401.867188 499.03125 399.652344 C 499.03125 397.183594 497.113281 396.632812 495.050781 396.632812 L 489.628906 396.632812 L 489.628906 402.789062 Z M 489.625 413.964844 L 495.820312 413.964844 C 498.070312 413.964844 500.101562 413.226562 500.101562 410.496094 C 500.101562 407.804688 498.441406 406.734375 495.933594 406.734375 L 489.625 406.734375 Z M 489.625 413.964844 " fill-opacity="1" fill-rule="nonzero"/><path fill="#000000" d="M 532.402344 408.507812 C 532.402344 415.621094 528.199219 419.089844 521.152344 419.089844 C 514.03125 419.089844 509.941406 415.695312 509.941406 408.507812 L 509.941406 392.132812 L 515.730469 392.132812 L 515.730469 408.507812 C 515.730469 411.382812 516.46875 414.222656 521.148438 414.222656 C 525.277344 414.222656 526.605469 412.449219 526.605469 408.507812 L 526.605469 392.132812 L 532.394531 392.132812 L 532.394531 408.507812 Z M 532.402344 408.507812 " fill-opacity="1" fill-rule="nonzero"/><path fill="#000000" d="M 537.308594 392.132812 L 543.097656 392.132812 L 543.097656 418.460938 L 537.308594 418.460938 Z M 537.308594 392.132812 " fill-opacity="1" fill-rule="nonzero"/><path fill="#000000" d="M 547.375 418.277344 L 547.375 392.019531 L 553.054688 392.019531 L 553.054688 413.410156 L 566.554688 413.410156 L 566.554688 418.277344 Z M 547.375 418.277344 " fill-opacity="1" fill-rule="nonzero"/><g clip-path="url(#d043dd37f0)"><path fill="#000000" d="M 570.753906 392.132812 L 582.113281 392.132812 C 588.933594 392.132812 594.0625 396.449219 594.0625 405.148438 C 594.0625 412.78125 590.152344 418.460938 582.113281 418.460938 L 570.753906 418.460938 Z M 576.546875 413.59375 L 581.710938 413.59375 C 585.0625 413.59375 588.273438 411.53125 588.273438 405.703125 C 588.273438 400.390625 586.390625 397 580.675781 397 L 576.546875 397 Z M 576.546875 413.59375 " fill-opacity="1" fill-rule="nonzero"/></g></svg>
